<?xml version="1.0" encoding="UTF-8" standalone="no"?>
<!-- Created with Inkscape (http://www.inkscape.org/) -->

<svg
   xmlns:osb="http://www.openswatchbook.org/uri/2009/osb"
   xmlns:dc="http://purl.org/dc/elements/1.1/"
   xmlns:cc="http://creativecommons.org/ns#"
   xmlns:rdf="http://www.w3.org/1999/02/22-rdf-syntax-ns#"
   xmlns:svg="http://www.w3.org/2000/svg"
   xmlns="http://www.w3.org/2000/svg"
   xmlns:xlink="http://www.w3.org/1999/xlink"
   xmlns:sodipodi="http://sodipodi.sourceforge.net/DTD/sodipodi-0.dtd"
   xmlns:inkscape="http://www.inkscape.org/namespaces/inkscape"
   width="192mm"
   height="163mm"
   viewBox="0 0 192 163"
   version="1.1"
   id="svg8"
   inkscape:version="0.92.1 r15371"
   sodipodi:docname="smoking.svg">
  <defs
     id="defs2">
    <linearGradient
       inkscape:collect="always"
       id="linearGradient6009">
      <stop
         style="stop-color:#000000;stop-opacity:1;"
         offset="0"
         id="stop6005" />
      <stop
         style="stop-color:#000000;stop-opacity:0;"
         offset="1"
         id="stop6007" />
    </linearGradient>
    <linearGradient
       id="linearGradient5993"
       osb:paint="solid">
      <stop
         style="stop-color:#000000;stop-opacity:1;"
         offset="0"
         id="stop5991" />
    </linearGradient>
    <linearGradient
       inkscape:collect="always"
       xlink:href="#linearGradient6009"
       id="linearGradient6011"
       x1="154.48178"
       y1="149.46724"
       x2="157.68903"
       y2="34.006798"
       gradientUnits="userSpaceOnUse"
       gradientTransform="translate(0,112)" />
  </defs>
  <sodipodi:namedview
     id="base"
     pagecolor="#ffffff"
     bordercolor="#666666"
     borderopacity="1.0"
     inkscape:pageopacity="0.0"
     inkscape:pageshadow="2"
     inkscape:zoom="0.49497475"
     inkscape:cx="768.2787"
     inkscape:cy="309.53872"
     inkscape:document-units="mm"
     inkscape:current-layer="layer1"
     showgrid="false"
     objecttolerance="1"
     inkscape:window-width="1280"
     inkscape:window-height="960"
     inkscape:window-x="0"
     inkscape:window-y="27"
     inkscape:window-maximized="1" />
  <metadata
     id="metadata5">
    <rdf:RDF>
      <cc:Work
         rdf:about="">
        <dc:format>image/svg+xml</dc:format>
        <dc:type
           rdf:resource="http://purl.org/dc/dcmitype/StillImage" />
        <dc:title></dc:title>
      </cc:Work>
    </rdf:RDF>
  </metadata>
  <g
     inkscape:label="Layer 1"
     inkscape:groupmode="layer"
     id="layer1"
     transform="translate(0,-134)">
    <rect
       style="fill:#000000;fill-opacity:1;fill-rule:nonzero;stroke:none;stroke-width:3.06500006;stroke-miterlimit:4;stroke-dasharray:none;stroke-opacity:1"
       id="rect4501"
       width="125.48809"
       height="14.363094"
       x="17.943697"
       y="268.6998" />
    <rect
       style="fill:#000000;fill-opacity:1;fill-rule:nonzero;stroke:none;stroke-width:3.06500006;stroke-miterlimit:4;stroke-dasharray:none;stroke-opacity:1"
       id="rect4508"
       width="6.8035727"
       height="14.363096"
       x="150.61333"
       y="268.69977" />
    <rect
       style="fill:#000000;fill-opacity:1;fill-rule:nonzero;stroke:none;stroke-width:3.06500006;stroke-miterlimit:4;stroke-dasharray:none;stroke-opacity:1"
       id="rect4508-3"
       width="6.8035727"
       height="14.363096"
       x="163.46452"
       y="268.6998" />
    <path
       style="fill:url(#linearGradient6011);fill-opacity:1;fill-rule:nonzero;stroke:#000000;stroke-width:0.26458332px;stroke-linecap:butt;stroke-linejoin:miter;stroke-opacity:1"
       d="m 152.34363,261.72042 c 0.89089,-0.8909 1.78179,-1.7818 2.67269,-2.6727 0.17818,-0.17818 0.42185,-0.30916 0.53454,-0.53454 1.18074,-0.69421 0.19712,-1.82913 0.53454,-2.67269 0.2386,-0.59649 0.73855,-1.05273 1.06908,-1.60362 0.20499,-0.34164 0.35636,-0.71272 0.53454,-1.06908 0.17818,-0.35636 0.40854,-0.6911 0.53454,-1.06907 0.0563,-0.16904 0,-0.35636 0,-0.53454 0.17818,-0.53454 0.32527,-1.08047 0.53454,-1.60362 0.29593,-0.73985 0.71271,-1.42544 1.06907,-2.13816 0.17818,-0.35636 0.4564,-0.67839 0.53454,-1.06907 0.10483,-0.52416 0,-1.06908 0,-1.60362 0,-1.06908 0,-2.13816 0,-3.20724 0,-1.24725 0,-2.49451 0,-3.74177 0,-0.53454 0.16904,-1.09651 0,-1.60362 -0.0797,-0.23905 -0.42184,-0.30915 -0.53454,-0.53453 -0.17712,-0.35426 0.14934,-1.69015 0,-2.13816 -0.12599,-0.37798 -0.38657,-0.69915 -0.53454,-1.06908 -0.20926,-0.52315 -0.28255,-1.09965 -0.53453,-1.60362 -0.1127,-0.22538 -0.42185,-0.30915 -0.53454,-0.53454 -0.0797,-0.15936 0.0797,-0.37517 0,-0.53454 -0.28731,-0.57461 -0.68362,-1.08966 -1.06908,-1.60361 -0.15119,-0.20159 -0.47343,-0.29008 -0.53454,-0.53454 -0.12965,-0.51858 0.12964,-1.08504 0,-1.60362 -0.0611,-0.24446 -0.39476,-0.32487 -0.53454,-0.53454 -0.221,-0.3315 -0.35636,-0.71272 -0.53454,-1.06908 -0.35636,-0.71271 -0.85017,-1.37197 -1.06908,-2.13815 -0.14685,-0.51397 0.10483,-1.07946 0,-1.60362 -0.0781,-0.39068 -0.40854,-0.6911 -0.53454,-1.06908 -0.0563,-0.16903 0,-0.35636 0,-0.53454 0,-0.53454 0.10484,-1.07946 0,-1.60361 -0.0781,-0.39069 -0.4564,-0.67839 -0.53453,-1.06908 -0.10484,-0.52416 0.19852,-1.10731 0,-1.60362 -0.18717,-0.46792 -0.78953,-0.64975 -1.06908,-1.06907 -0.44201,-0.66302 -0.65911,-1.45487 -1.06908,-2.13816 -0.66106,-1.10177 -1.39134,-2.16169 -2.13816,-3.20723 -0.14646,-0.20505 -0.40489,-0.31847 -0.53454,-0.53454 -0.40997,-0.68329 -0.71272,-1.42544 -1.06908,-2.13816 -0.17817,-0.35636 -0.35635,-0.71272 -0.53453,-1.06908 0,-0.53454 0.19852,-1.10731 0,-1.60362 -0.18717,-0.46792 -0.80979,-0.63693 -1.06908,-1.06907 -0.2899,-0.48316 -0.32528,-1.08047 -0.53454,-1.60362 -0.14797,-0.36992 -0.43791,-0.68255 -0.53454,-1.06908 -0.17286,-0.69144 0.13978,-1.43928 0,-2.13815 -0.1105,-0.55252 -0.39788,-1.05699 -0.53454,-1.60362 -0.0432,-0.17286 0.0988,-0.38629 0,-0.53454 -0.27955,-0.41933 -0.84369,-0.61832 -1.06908,-1.06908 -0.23905,-0.47811 0,-1.06908 0,-1.60362 0,-1.42543 0,-2.85087 0,-4.27631 0,-1.42544 0,-2.85087 0,-4.27631 0,-0.53454 -0.10483,-1.07946 0,-1.60362 0.0781,-0.39068 0.43791,-0.68255 0.53454,-1.06908 0.0864,-0.34572 -0.15937,-0.75034 0,-1.06907 0.22538,-0.45077 0.7667,-0.66591 1.06908,-1.06908 0.23905,-0.31874 0.32955,-0.72744 0.53454,-1.06908 0.33053,-0.55089 0.68362,-1.08967 1.06908,-1.60362 0.15119,-0.20158 0.38335,-0.33295 0.53454,-0.53454 0.38546,-0.51395 0.66775,-1.10196 1.06908,-1.60361 0.31482,-0.39354 0.80978,-0.63693 1.06907,-1.06908 0.2899,-0.48316 0.28256,-1.09965 0.53454,-1.60362 0.11269,-0.22538 0.42185,-0.30916 0.53454,-0.53454 0.0797,-0.15937 -0.0988,-0.38628 0,-0.53454 0.39845,-0.59767 1.55635,-1.55634 2.13816,-2.13815 0.17818,-0.17818 0.40489,-0.31847 0.53454,-0.53454 0.40997,-0.68329 0.62707,-1.47514 1.06907,-2.13816 0.27955,-0.41933 0.8437,-0.61831 1.06908,-1.06908 0.15937,-0.31873 -0.13235,-0.7382 0,-1.06907 0.6073,-1.51824 2.0286,-2.2389 2.6727,-3.74178 0.28939,-0.67525 0.39046,-1.41777 0.53454,-2.13815 0.0891,-0.44545 -0.17818,-1.24726 0,-1.60362 0.1416,-0.81775 1.26554,-0.92747 1.60361,-1.60362 0.25199,-0.50397 0.32528,-1.08046 0.53454,-1.60361 0.14797,-0.36993 0.35636,-0.71272 0.53454,-1.06908 0.35636,-0.71272 0.62707,-1.47514 1.06908,-2.13816 0.27955,-0.41933 0.71272,-0.71272 1.06908,-1.06908 0.71272,-0.71272 1.42544,-1.42543 2.13815,-2.13815"
       id="path4533"
       inkscape:connector-curvature="0" />
  </g>
</svg>
